<svg width="66" height="94" viewBox="0 0 66 94" fill="none" xmlns="http://www.w3.org/2000/svg">
<g clip-path="url(#clip0_2_1107)">
<path d="M16.7533 94C25.7215 94 33 86.9813 33 78.3333V62.6667H16.7533C7.78504 62.6667 0.5065 69.6853 0.5065 78.3333C0.5065 86.9813 7.78504 94 16.7533 94Z" fill="#0ACF83"/>
<path d="M0.5065 47C0.5065 38.352 7.78504 31.3333 16.7533 31.3333H33V62.6666H16.7533C7.78504 62.6666 0.5065 55.648 0.5065 47Z" fill="#A259FF"/>
<path d="M0.5065 15.6667C0.5065 7.01867 7.78504 0 16.7533 0H33V31.3333H16.7533C7.78504 31.3333 0.5065 24.3147 0.5065 15.6667Z" fill="#F24E1E"/>
<path d="M33 0H49.2467C58.215 0 65.4935 7.01867 65.4935 15.6667C65.4935 24.3147 58.215 31.3333 49.2467 31.3333H33V0Z" fill="#FF7262"/>
<path d="M65.4935 47C65.4935 55.648 58.215 62.6666 49.2467 62.6666C40.2785 62.6666 33 55.648 33 47C33 38.352 40.2785 31.3333 49.2467 31.3333C58.215 31.3333 65.4935 38.352 65.4935 47Z" fill="#1ABCFE"/>
</g>
<defs>
<clipPath id="clip0_2_1107">
<rect width="65" height="94" fill="white" transform="translate(0.5)"/>
</clipPath>
</defs>
</svg>
